<svg width="374" height="98" viewBox="0 0 374 98" fill="none" xmlns="http://www.w3.org/2000/svg">
<rect y="46" width="374" height="52" rx="26" fill="#027A5E"/>
<path d="M0 28.3227V72.5L374 72.5V15.1787C366.833 14.183 343.2 11.5943 310 13.984C268.5 16.9713 243.5 41.4666 173.5 42.6615C117.5 43.6174 33.8333 31.1108 0 28.3227Z" fill="#027A5E"/>
<path d="M1 16C163.239 16 266.912 59.8321 361.011 62.838L371 63C367.681 63 364.352 62.9447 361.011 62.838L1 57V16Z" fill="#027A5E" fill-opacity="0.5"/>
<path d="M1 57L374 62.5V0C180 0 99.4 57 1 57Z" fill="#027A5E" fill-opacity="0.5"/>
</svg>
